<svg width="800" height="800" viewBox="0 0 800 800" fill="none" xmlns="http://www.w3.org/2000/svg">
<g clip-path="url(#clip0_1385_1650)">
<path d="M236.853 368.592C224.917 355.841 206.319 356.564 198.207 372.788L2.47244 764.266C-1.15625 771.52 -0.769758 780.135 3.49385 787.035C7.75746 793.934 15.29 798.134 23.4007 798.133H295.989C304.911 798.34 313.117 793.268 316.921 785.194C375.698 663.668 340.088 478.892 236.853 368.592Z" fill="url(#paint0_linear_1385_1650)"/>
<path d="M380.488 12.536C271.011 185.989 278.234 378.092 350.344 522.317L481.783 785.194C485.746 793.121 493.848 798.128 502.711 798.129H775.295C783.405 798.129 790.938 793.93 795.201 787.03C799.465 780.131 799.851 771.515 796.223 764.261C796.223 764.261 429.515 30.7398 420.29 12.3871C412.042 -4.04278 391.092 -4.26616 380.488 12.536Z" fill="#2681FF"/>
</g>
<defs>
<linearGradient id="paint0_linear_1385_1650" x1="34415.7" y1="7286.71" x2="6973.44" y2="36764.5" gradientUnits="userSpaceOnUse">
<stop stop-color="#0052CC"/>
<stop offset="0.923" stop-color="#2684FF"/>
</linearGradient>
<clipPath id="clip0_1385_1650">
<rect width="800" height="800" fill="white"/>
</clipPath>
</defs>
</svg>
