<svg width="675" height="538" viewBox="0 0 675 538" fill="none" xmlns="http://www.w3.org/2000/svg">
<path d="M664.008 223.35C647.458 212.21 603.978 207.46 572.368 215.97C570.668 184.48 554.428 157.94 524.718 134.8L513.728 127.42L506.398 138.49C491.998 160.35 485.928 189.49 488.068 215.98C489.768 232.3 495.438 250.64 506.398 263.95C465.248 287.82 427.328 282.4 259.368 282.4H0.0583793C-0.701621 320.33 5.39838 393.28 51.7884 452.67C56.9084 459.23 62.5284 465.58 68.6284 471.69C106.348 509.46 163.338 537.16 248.558 537.23C378.558 537.35 489.948 467.07 557.708 297.16C580.008 297.53 638.858 301.15 667.658 245.5C668.358 244.56 674.988 230.74 674.988 230.74L664.008 223.36V223.35ZM169.288 184.21H96.3684V257.13H169.288V184.21ZM263.498 184.21H190.578V257.13H263.498V184.21ZM357.708 184.21H284.788V257.13H357.708V184.21ZM451.918 184.21H378.998V257.13H451.918V184.21ZM75.0984 184.21H2.15838V257.13H75.0784V184.21H75.0984ZM169.308 92.1H96.3884V165.02H169.308V92.1ZM263.518 92.1H190.598V165.02H263.518V92.1ZM357.728 92.1H284.808V165.02H357.728V92.1ZM357.698 0H284.778V72.92H357.698V0Z" fill="#1D63ED"/>
</svg>
