<svg width="128" height="128" viewBox="0 0 128 128" fill="none" xmlns="http://www.w3.org/2000/svg">
<g clip-path="url(#clip0_1385_1722)">
<path d="M64 128C99.3462 128 128 99.3462 128 64C128 28.6538 99.3462 0 64 0C28.6538 0 0 28.6538 0 64C0 99.3462 28.6538 128 64 128Z" fill="#2F3242"/>
<path d="M51.3953 39.5028C52.3732 39.6812 53.3107 39.033 53.4891 38.055C53.6675 37.0771 53.0193 36.1396 52.0413 35.9612L51.3953 39.5028ZM28.9392 60.9358C29.4331 61.7985 30.5328 62.0976 31.3956 61.6037C32.2584 61.1098 32.5574 60.0101 32.0635 59.1473L28.9392 60.9358ZM37.6934 66.7457C37.0249 66.01 35.8865 65.9554 35.1507 66.6239C34.4149 67.2924 34.3604 68.4308 35.0289 69.1666L37.6934 66.7457ZM96.9205 89.515C97.7415 88.9544 97.9525 87.8344 97.3918 87.0135C96.8312 86.1925 95.7112 85.9815 94.8903 86.5422L96.9205 89.515ZM52.0413 35.9612C46.4711 34.9451 41.2847 34.8966 36.9737 35.9376C32.6547 36.9806 29.084 39.1576 27.0558 42.6762L30.1747 44.4741C31.5692 42.0549 34.1447 40.3243 37.8187 39.4371C41.5008 38.5479 46.1546 38.5468 51.3953 39.5028L52.0413 35.9612ZM27.0558 42.6762C24.0429 47.9029 25.278 54.5399 28.9392 60.9358L32.0635 59.1473C28.6578 53.1977 28.1087 48.0581 30.1747 44.4741L27.0558 42.6762ZM35.0289 69.1666C39.6384 74.24 45.7157 79.1355 52.8477 83.2597L54.6498 80.1432C47.808 76.1868 42.0297 71.5185 37.6934 66.7457L35.0289 69.1666ZM52.8477 83.2597C61.3439 88.1726 70.0464 91.2445 77.735 92.3608C85.3589 93.4677 92.2743 92.6881 96.9205 89.515L94.8903 86.5422C91.3254 88.9767 85.4901 89.849 78.2523 88.7982C71.0792 87.7567 62.8089 84.8612 54.6498 80.1432L52.8477 83.2597ZM105.359 84.9077C105.359 81.4337 102.546 78.6127 99.0709 78.6127V82.2127C100.553 82.2127 101.759 83.4166 101.759 84.9077H105.359ZM99.0709 78.6127C95.5955 78.6127 92.783 81.4337 92.783 84.9077H96.383C96.383 83.4166 97.5891 82.2127 99.0709 82.2127V78.6127ZM92.783 84.9077C92.783 88.3817 95.5955 91.2027 99.0709 91.2027V87.6027C97.5891 87.6027 96.383 86.3988 96.383 84.9077H92.783ZM99.0709 91.2027C102.546 91.2027 105.359 88.3817 105.359 84.9077H101.759C101.759 86.3988 100.553 87.6027 99.0709 87.6027V91.2027Z" fill="#A2ECFB"/>
<path d="M91.4874 65.382C90.8457 66.1412 90.941 67.2769 91.7003 67.9186C92.4595 68.5603 93.5952 68.465 94.2369 67.7058L91.4874 65.382ZM84.5071 35.2412C83.5131 35.2282 82.6968 36.0236 82.6839 37.0176C82.6709 38.0116 83.4662 38.8279 84.4603 38.8409L84.5071 35.2412ZM74.9408 39.8801C75.9128 39.6716 76.5316 38.7145 76.3231 37.7425C76.1145 36.7706 75.1574 36.1517 74.1855 36.3603L74.9408 39.8801ZM25.5492 80.9047C25.6933 81.8883 26.6075 82.5688 27.5912 82.4247C28.5748 82.2806 29.2553 81.3664 29.1112 80.3828L25.5492 80.9047ZM94.2369 67.7058C97.8839 63.3907 100.505 58.927 101.752 54.678C103.001 50.4213 102.9 46.2472 100.876 42.7365L97.7575 44.5344C99.1495 46.9491 99.3604 50.0419 98.2975 53.6644C97.2324 57.2945 94.9185 61.3223 91.4874 65.382L94.2369 67.7058ZM100.876 42.7365C97.912 37.5938 91.7083 35.335 84.5071 35.2412L84.4603 38.8409C91.1329 38.9278 95.7263 41.0106 97.7575 44.5344L100.876 42.7365ZM74.1855 36.3603C67.4363 37.8086 60.0879 40.648 52.8827 44.8146L54.6848 47.931C61.5973 43.9338 68.5949 41.2419 74.9408 39.8801L74.1855 36.3603ZM52.8827 44.8146C44.1367 49.872 36.967 56.0954 32.1492 62.3927C27.3775 68.63 24.7149 75.2115 25.5492 80.9047L29.1112 80.3828C28.484 76.1026 30.4748 70.5062 35.0085 64.5802C39.4961 58.7143 46.284 52.7889 54.6848 47.931L52.8827 44.8146Z" fill="#A2ECFB"/>
<path d="M49.0823 87.2295C48.7476 86.2934 47.7174 85.8059 46.7814 86.1406C45.8453 86.4753 45.3578 87.5055 45.6925 88.4416L49.0823 87.2295ZM78.5633 96.4256C79.0748 95.5732 78.7986 94.4675 77.9462 93.9559C77.0939 93.4443 75.9882 93.7205 75.4766 94.5729L78.5633 96.4256ZM79.5701 85.1795C79.2736 86.1284 79.8025 87.1379 80.7514 87.4344C81.7002 87.7308 82.7098 87.2019 83.0062 86.2531L79.5701 85.1795ZM69.1558 22.5301C68.2475 22.1261 67.1836 22.535 66.7797 23.4433C66.3757 24.3517 66.7846 25.4155 67.6929 25.8194L69.1558 22.5301ZM45.6925 88.4416C47.5992 93.7741 50.1494 98.2905 53.203 101.505C56.2621 104.724 59.9277 106.731 63.9833 106.731V103.131C61.1982 103.131 58.4163 101.765 55.8129 99.0249C53.204 96.279 50.8766 92.2477 49.0823 87.2295L45.6925 88.4416ZM63.9833 106.731C69.8692 106.731 74.8919 102.542 78.5633 96.4256L75.4766 94.5729C72.0779 100.235 68.012 103.131 63.9833 103.131V106.731ZM83.0062 86.2531C85.0267 79.7864 86.183 72.1831 86.183 64.0673H82.583C82.583 71.8536 81.4721 79.0919 79.5701 85.1795L83.0062 86.2531ZM86.183 64.0673C86.183 54.1144 84.4437 44.922 81.4959 37.6502C78.5746 30.4436 74.3434 24.8371 69.1558 22.5301L67.6929 25.8194C71.6362 27.5731 75.3844 32.1564 78.1596 39.0026C80.9084 45.7836 82.583 54.507 82.583 64.0673H86.183Z" fill="#A2ECFB"/>
<path fill-rule="evenodd" clip-rule="evenodd" d="M103.559 84.9077C103.559 82.4252 101.55 80.4127 99.0709 80.4127C96.5923 80.4127 94.583 82.4252 94.583 84.9077C94.583 87.3902 96.5923 89.4027 99.0709 89.4027C101.55 89.4027 103.559 87.3902 103.559 84.9077Z" stroke="#A2ECFB" stroke-width="3.6" stroke-linecap="round"/>
<path fill-rule="evenodd" clip-rule="evenodd" d="M28.8141 89.4027C31.2927 89.4027 33.3021 87.3902 33.3021 84.9077C33.3021 82.4252 31.2927 80.4127 28.8141 80.4127C26.3355 80.4127 24.3262 82.4252 24.3262 84.9077C24.3262 87.3902 26.3355 89.4027 28.8141 89.4027Z" stroke="#A2ECFB" stroke-width="3.6" stroke-linecap="round"/>
<path d="M63.9835 27.6986C66.4622 27.6986 68.4715 25.6861 68.4715 23.2036C68.4715 20.7211 66.4622 18.7086 63.9835 18.7086C61.5049 18.7086 59.4956 20.7211 59.4956 23.2036C59.4956 25.6861 61.5049 27.6986 63.9835 27.6986Z" stroke="#A2ECFB" stroke-width="3.6" stroke-linecap="round"/>
<path fill-rule="evenodd" clip-rule="evenodd" d="M64.8499 68.0857C62.6339 68.5652 60.4508 67.1547 59.9711 64.9353C59.4932 62.7159 60.9005 60.5293 63.1165 60.0489C65.3324 59.5693 67.5155 60.9798 67.9952 63.1992C68.474 65.4186 67.0658 67.6052 64.8499 68.0857Z" fill="#A2ECFB"/>
</g>
<defs>
<clipPath id="clip0_1385_1722">
<rect width="128" height="128" fill="white"/>
</clipPath>
</defs>
</svg>
