<svg width="67" height="58" viewBox="0 0 67 58" fill="none" xmlns="http://www.w3.org/2000/svg">
<path d="M46.0609 21.1093L33.5204 13.8691C33.2066 13.6879 32.8198 13.6879 32.506 13.8691L19.9653 21.1093C19.6517 21.2905 19.458 21.6253 19.458 21.9878V36.4681C19.458 36.8304 19.6517 37.1654 19.9653 37.347L32.506 44.5871C32.8198 44.7684 33.2066 44.7684 33.5204 44.5871L46.0609 37.347C46.3747 37.1657 46.5681 36.8306 46.5681 36.4681V21.9878C46.5678 21.6253 46.3744 21.2905 46.0609 21.1093Z" fill="#8080F2"/>
<path d="M0.408363 27.7046L15.3918 1.63772C15.9361 0.695223 16.9415 0 18.0298 0H47.9971C49.0857 0 50.0913 0.695223 50.6356 1.63772L65.619 27.6471C66.1633 28.5899 66.1633 29.7796 65.619 30.7224L50.6356 56.5756C50.0913 57.5181 49.0857 58 47.9971 58H18.03C16.9417 58 15.9361 57.5326 15.3921 56.5899L0.408622 30.6944C-0.136164 29.7522 -0.136164 28.6471 0.408363 27.7046ZM12.8155 40.2393C12.8155 40.6225 13.0462 40.977 13.3784 41.1689L32.464 52.1803C32.7959 52.3719 33.2118 52.3719 33.5437 52.1803L52.6441 41.1689C52.9761 40.977 53.2083 40.6228 53.2083 40.2393V18.2161C53.2083 17.8327 52.9794 17.4785 52.6472 17.2866L33.5624 6.27513C33.2304 6.08327 32.8151 6.08327 32.4832 6.27513L13.3815 17.2866C13.0493 17.4785 12.8155 17.8327 12.8155 18.2161V40.2393Z" fill="#4B32C3"/>
</svg>
