<svg width="20" height="18" viewBox="0 0 20 18" fill="none" xmlns="http://www.w3.org/2000/svg">
<path d="M9.161 6.342C9.319 6.112 9.492 6.082 9.633 6.082C9.773 6.082 10.007 6.112 10.165 6.342C12.225 9.148 16.497 16.55 16.892 16.953C17.477 17.55 18.28 17.178 18.746 16.501C19.206 15.834 19.333 15.366 19.333 14.867C19.333 14.527 12.68 2.253 12.009 1.231C11.365 0.248 11.155 0 10.053 0H9.228C8.128 0 7.969 0.248 7.325 1.23C6.653 2.254 0 14.528 0 14.868C0 15.368 0.127 15.835 0.587 16.502C1.053 17.179 1.856 17.552 2.441 16.954C2.836 16.551 7.102 9.149 9.161 6.344V6.342Z" fill="white"/>
</svg>
