<svg width="256" height="256" viewBox="0 0 256 256" fill="none" xmlns="http://www.w3.org/2000/svg">
<path d="M128 0C57.6 0 0 57.6 0 128C0 198.4 57.6 256 128 256C198.4 256 256 198.4 256 128C256 57.6 198.4 0 128 0ZM56.6857 199.314C37.4857 180.114 27.4286 154.514 27.4286 129.829L127.086 228.571C101.486 227.657 75.8857 218.514 56.6857 199.314ZM149.943 225.829L30.1714 106.057C40.2286 61.2571 80.4571 27.4286 128 27.4286C161.829 27.4286 191.086 43.8857 209.371 68.5714L195.657 80.4571C180.114 59.4286 155.429 45.7143 128 45.7143C92.3429 45.7143 62.1714 68.5714 50.2857 100.571L155.429 205.714C181.943 196.571 202.057 173.714 208.457 146.286H164.571V128H228.571C228.571 175.543 194.743 215.771 149.943 225.829Z" fill="#663399"/>
<path d="M149.943 225.829L30.1714 106.057C40.2286 61.2571 80.4571 27.4286 128 27.4286C161.829 27.4286 191.086 43.8857 209.371 68.5714L195.657 80.4571C180.114 59.4286 155.429 45.7143 128 45.7143C92.3429 45.7143 62.1714 68.5714 50.2857 100.571L155.429 205.714C181.943 196.571 202.057 173.714 208.457 146.286H164.571V128H228.571C228.571 175.543 194.743 215.771 149.943 225.829Z" fill="white"/>
<path d="M56.6857 199.314C37.4857 180.114 27.4286 154.514 27.4286 129.829L127.086 228.571C101.486 227.657 75.8857 218.514 56.6857 199.314Z" fill="white"/>
</svg>
