<svg width="89" height="100" viewBox="0 0 89 100" fill="none" xmlns="http://www.w3.org/2000/svg">
<path fill-rule="evenodd" clip-rule="evenodd" d="M44.4998 6.46802L82.1998 28.234V71.766L44.4998 93.532L6.7998 71.766V28.234L44.4998 6.46802ZM11.0298 30.676V62.652L38.7218 14.688L11.0298 30.676ZM44.4998 13.14L12.5778 68.43H76.4218L44.4998 13.14ZM72.1918 72.66H16.8078L44.4998 88.648L72.1918 72.66ZM77.9698 62.652L50.2778 14.688L77.9698 30.676V62.652Z" fill="#E10098"/>
<path d="M8.91 38.36C13.8309 38.36 17.82 34.3709 17.82 29.45C17.82 24.5292 13.8309 20.54 8.91 20.54C3.98914 20.54 0 24.5292 0 29.45C0 34.3709 3.98914 38.36 8.91 38.36Z" fill="#E10098"/>
<path d="M8.91 79.455C13.8309 79.455 17.82 75.4659 17.82 70.545C17.82 65.6242 13.8309 61.635 8.91 61.635C3.98914 61.635 0 65.6242 0 70.545C0 75.4659 3.98914 79.455 8.91 79.455Z" fill="#E10098"/>
<path d="M44.4998 100C49.4207 100 53.4098 96.0108 53.4098 91.09C53.4098 86.1691 49.4207 82.18 44.4998 82.18C39.579 82.18 35.5898 86.1691 35.5898 91.09C35.5898 96.0108 39.579 100 44.4998 100Z" fill="#E10098"/>
<path d="M80.0848 79.455C85.0057 79.455 88.9948 75.4659 88.9948 70.545C88.9948 65.6242 85.0057 61.635 80.0848 61.635C75.1639 61.635 71.1748 65.6242 71.1748 70.545C71.1748 75.4659 75.1639 79.455 80.0848 79.455Z" fill="#E10098"/>
<path d="M80.0848 38.365C85.0057 38.365 88.9948 34.3758 88.9948 29.455C88.9948 24.5341 85.0057 20.545 80.0848 20.545C75.1639 20.545 71.1748 24.5341 71.1748 29.455C71.1748 34.3758 75.1639 38.365 80.0848 38.365Z" fill="#E10098"/>
<path d="M44.4998 17.82C49.4207 17.82 53.4098 13.8309 53.4098 8.91C53.4098 3.98914 49.4207 0 44.4998 0C39.579 0 35.5898 3.98914 35.5898 8.91C35.5898 13.8309 39.579 17.82 44.4998 17.82Z" fill="#E10098"/>
</svg>
