<svg width="97" height="98" viewBox="0 0 97 98" fill="none" xmlns="http://www.w3.org/2000/svg">
<g clip-path="url(#clip0_1380_1572)">
<path d="M9.41427 41.2071L3.71826 48.584L9.41427 55.6808M87.5722 41.2071L93.2683 48.584L87.5722 55.6808" stroke="#808080" stroke-width="5.21053" stroke-linecap="round" stroke-linejoin="round"/>
<path d="M42.7103 31.2154L31.0229 19.3898C28.766 17.1062 25.0817 17.0953 22.8114 19.3657L19.2574 22.9197C16.9964 25.1806 16.9964 28.8463 19.2574 31.1072L22.0269 33.8768L27.9098 39.7596L31.1314 42.7944M65.8682 54.3733L77.6938 66.0607C79.9775 68.3177 79.9883 72.002 77.718 74.2723L74.164 77.8263C71.903 80.0872 68.2374 80.0872 65.9764 77.8263L63.2069 75.0567L57.324 69.1739L54.2893 65.9523M15.2103 81.8733L19.5757 72.6056M15.2103 81.8733L24.4781 77.5079M15.2103 81.8733C15.2103 81.8733 18.2356 78.8481 19.5757 77.5079M15.2103 81.8733C15.2103 81.8733 17.3392 78.5493 18.105 77.0177M15.2103 81.8733C15.2103 81.8733 18.5344 79.7444 20.066 78.9786M19.5757 72.6056L23.5466 62.4579C23.8376 61.7141 24.2794 61.0385 24.8442 60.4738L63.2069 22.1111L65.9764 19.3415C68.2374 17.0806 71.903 17.0806 74.164 19.3415L77.7421 22.9197C80.0031 25.1806 80.0031 28.8463 77.7421 31.1072L74.9726 33.8768L36.6099 72.2395C36.0451 72.8042 35.3696 73.246 34.6258 73.5371L24.4781 77.5079M19.5757 72.6056C19.5757 72.6056 18.6793 75.2946 18.105 77.0177M19.5757 72.6056L18.105 77.0177M24.4781 77.5079C24.4781 77.5079 21.789 78.4043 20.066 78.9786M24.4781 77.5079L20.066 78.9786M19.5757 77.5079C19.0014 77.3165 18.6793 77.2091 18.105 77.0177M19.5757 77.5079C19.7672 78.0823 19.8745 78.4043 20.066 78.9786M19.5757 77.5079L18.105 77.0177M19.5757 77.5079L20.066 78.9786" stroke="white" stroke-width="5.21053" stroke-linecap="round" stroke-linejoin="round"/>
</g>
<defs>
<clipPath id="clip0_1380_1572">
<rect width="97" height="98" fill="white"/>
</clipPath>
</defs>
</svg>
