<svg width="90" height="91" viewBox="0 0 90 91" fill="none" xmlns="http://www.w3.org/2000/svg">
<g clip-path="url(#clip0_1384_1558)">
<path fill-rule="evenodd" clip-rule="evenodd" d="M19.2865 1.15323C36.377 -0.74004 53.6244 -0.74004 70.7149 1.15323C80.0516 2.19556 87.579 9.54598 88.6754 18.9171C90.7008 36.2468 90.7008 53.7533 88.6754 71.083C87.579 80.4541 80.0516 87.8046 70.7198 88.8518C53.6277 90.7454 36.3787 90.7454 19.2865 88.8518C9.94979 87.8046 2.42237 80.4541 1.32596 71.0879C-0.699798 53.7566 -0.699798 36.2484 1.32596 18.9171C2.42237 9.54598 9.94979 2.19556 19.2865 1.15323ZM66.6832 30.1517L70.8132 26.2036V25.3334H56.545L46.3725 50.7034L34.8085 25.3334H19.8421V26.2036L24.6605 32.0053C24.8964 32.2136 25.079 32.4754 25.1928 32.7689C25.3066 33.0623 25.3483 33.3788 25.3144 33.6917V56.51C25.3848 56.9153 25.3582 57.3316 25.2369 57.7247C25.1155 58.1178 24.9029 58.4765 24.6162 58.7716L19.1882 65.36V66.2204H34.5626V65.3551L29.1395 58.7766C28.8506 58.4816 28.633 58.1245 28.5034 57.7324C28.3739 57.3404 28.3358 56.9239 28.3922 56.5149V36.7794L41.8885 66.2253H43.4618L55.0504 36.7794V60.2466C55.0504 60.8711 55.0504 60.9891 54.6374 61.4021L50.468 65.4485V66.3138H70.71V65.4485L66.6881 61.4955C66.5152 61.3614 66.3813 61.1837 66.3 60.9806C66.2188 60.7775 66.1932 60.5563 66.2259 60.3401V31.3071C66.1932 31.0909 66.2188 30.8697 66.3 30.6666C66.3813 30.4635 66.5103 30.2858 66.6832 30.1517Z" fill="currentColor"/>
</g>
<defs>
<clipPath id="clip0_1384_1558">
<rect width="90" height="91" fill="white"/>
</clipPath>
</defs>
</svg>
