<svg width="403" height="160" viewBox="0 0 403 160" fill="none" xmlns="http://www.w3.org/2000/svg">
<path d="M388.366 108.471C377.866 116.471 367.266 124.471 356.766 132.471C345.666 140.871 334.366 149.471 321.266 154.471C308.266 159.471 292.966 160.471 280.666 153.871C273.466 150.071 267.766 143.871 262.266 137.971C245.166 119.471 228.066 100.971 210.966 82.571C203.466 74.471 203.166 62.171 210.066 53.571C224.166 36.071 244.966 23.771 264.766 12.371C275.066 6.47099 286.166 0.37099 297.966 1.17099C311.266 1.97099 322.766 11.371 333.466 18.071C344.766 25.071 355.766 32.471 366.066 40.871C376.766 49.571 390.066 57.471 397.266 69.871C402.466 78.771 403.866 90.771 398.066 99.271C395.566 102.871 391.966 105.671 388.366 108.471Z" fill="#252830" stroke="#252830"/>
<path d="M14.4658 108.471C24.9658 116.471 35.5658 124.471 46.0658 132.471C57.1658 140.871 68.4658 149.471 81.5658 154.471C94.5658 159.471 109.866 160.471 122.166 153.871C129.366 150.071 135.066 143.871 140.566 137.971C157.666 119.471 174.766 100.971 191.866 82.571C199.366 74.471 199.666 62.171 192.766 53.571C178.666 36.071 157.866 23.771 138.066 12.371C127.866 6.371 116.766 0.270993 104.866 1.07099C91.5658 1.87099 80.0658 11.271 69.3658 17.971C58.0658 24.971 47.0658 32.371 36.7658 40.771C26.0658 49.471 12.7658 57.371 5.56583 69.771C0.365828 78.671 -1.03416 90.671 4.76584 99.171C7.26584 102.871 10.9658 105.671 14.4658 108.471Z" fill="#252830" stroke="#252830"/>
<path d="M129.866 105.871C147.815 105.871 162.366 91.3202 162.366 73.371C162.366 55.4217 147.815 40.871 129.866 40.871C111.916 40.871 97.3657 55.4217 97.3657 73.371C97.3657 91.3202 111.916 105.871 129.866 105.871Z" fill="white" stroke="white"/>
<path d="M273.066 105.871C291.015 105.871 305.566 91.3202 305.566 73.371C305.566 55.4217 291.015 40.871 273.066 40.871C255.117 40.871 240.566 55.4217 240.566 73.371C240.566 91.3202 255.117 105.871 273.066 105.871Z" fill="white" stroke="white"/>
<path d="M129.666 82.771C135.078 82.771 139.466 78.3834 139.466 72.971C139.466 67.5586 135.078 63.171 129.666 63.171C124.253 63.171 119.866 67.5586 119.866 72.971C119.866 78.3834 124.253 82.771 129.666 82.771Z" fill="#252830" stroke="#252830"/>
<path d="M273.266 82.771C278.678 82.771 283.066 78.3834 283.066 72.971C283.066 67.5586 278.678 63.171 273.266 63.171C267.853 63.171 263.466 67.5586 263.466 72.971C263.466 78.3834 267.853 82.771 273.266 82.771Z" fill="#252830" stroke="#252830"/>
</svg>
