<svg width="256" height="256" viewBox="0 0 256 256" fill="none" xmlns="http://www.w3.org/2000/svg">
<g clip-path="url(#clip0_1385_1565)">
<mask id="mask0_1385_1565" style="mask-type:luminance" maskUnits="userSpaceOnUse" x="0" y="0" width="256" height="256">
<path d="M256 0H0V256H256V0Z" fill="white"/>
</mask>
<g mask="url(#mask0_1385_1565)">
<path d="M128 246C193.17 246 246 193.17 246 128C246 62.8304 193.17 10 128 10C62.8304 10 10 62.8304 10 128C10 193.17 62.8304 246 128 246Z" fill="black" stroke="black" stroke-width="16" stroke-linecap="round" stroke-linejoin="round"/>
<path d="M170.078 176V80Z" fill="black"/>
<path d="M170.078 176V80" stroke="url(#paint0_linear_1385_1565)" stroke-width="16" stroke-miterlimit="1.41421" stroke-linejoin="round"/>
<path fill-rule="evenodd" clip-rule="evenodd" d="M95.9219 80.0139L75.9219 80V176H95.9219V111.488L197.786 235.322C203.394 231.669 208.696 227.587 213.65 223.125L95.9219 80.0139Z" fill="url(#paint1_linear_1385_1565)"/>
</g>
</g>
<defs>
<linearGradient id="paint0_linear_1385_1565" x1="170.578" y1="80" x2="170.578" y2="160" gradientUnits="userSpaceOnUse">
<stop stop-color="white"/>
<stop offset="0.609375" stop-color="white" stop-opacity="0.57"/>
<stop offset="0.796875" stop-color="white" stop-opacity="0"/>
<stop offset="1" stop-color="white" stop-opacity="0"/>
</linearGradient>
<linearGradient id="paint1_linear_1385_1565" x1="159.002" y1="145" x2="216.92" y2="214.387" gradientUnits="userSpaceOnUse">
<stop stop-color="white"/>
<stop offset="1" stop-color="white" stop-opacity="0"/>
</linearGradient>
<clipPath id="clip0_1385_1565">
<rect width="256" height="256" fill="white"/>
</clipPath>
</defs>
</svg>
