<svg width="1024" height="1024" viewBox="0 0 1024 1024" fill="none" xmlns="http://www.w3.org/2000/svg">
<path d="M586.2 512C586.2 531.679 578.383 550.552 564.467 564.467C550.552 578.383 531.679 586.2 512 586.2C492.321 586.2 473.448 578.383 459.533 564.467C445.618 550.552 437.8 531.679 437.8 512C437.8 492.321 445.618 473.448 459.533 459.533C473.448 445.618 492.321 437.8 512 437.8C531.679 437.8 550.552 445.618 564.467 459.533C578.383 473.448 586.2 492.321 586.2 512Z" fill="white"/>
<path d="M841.3 321.8C825.178 294.03 805.587 268.424 783 245.6L697.3 295.1C670.84 272.492 640.476 254.904 607.7 243.2C579.022 271.884 555.57 305.353 538.4 342.1C633.9 335.6 732.5 370.1 824 441.7L877.9 410.6C869.6 379.6 857.2 349.7 841.3 321.8Z" fill="white"/>
<path d="M512 892.3C544.1 892.2 576 888.1 607.2 879.9V780.9C640.008 769.339 670.412 751.848 696.9 729.3C686.331 690.136 669.077 653.092 645.9 619.8C603.8 705.8 524.6 773.8 416.9 817.4V879.7C447.944 887.88 479.896 892.113 512 892.3Z" fill="white"/>
<path d="M182.7 321.9C166.676 349.729 154.308 379.508 145.9 410.5L231.6 460C225.234 494.167 225.166 529.209 231.4 563.4C270.583 573.877 311.289 577.464 351.7 574C298.3 494.6 278.9 391.9 295.1 276.9L241.2 245.8C218.536 268.57 198.877 294.144 182.7 321.9Z" fill="white"/>
<path d="M841.3 702.1C857.3 674.3 869.7 644.5 878.1 613.5L792.5 564C798.9 529.5 798.9 494.4 792.7 460.6C752.4 450 712.1 446.5 672.4 450C725.8 529.4 745.2 632.1 729 747.1L782.9 778.2C805.539 755.434 825.166 729.858 841.3 702.1Z" fill="#00B4FF"/>
<path d="M182.7 702.1C198.822 729.87 218.413 755.476 241 778.3L326.7 728.8C353.16 751.407 383.524 768.996 416.3 780.7C444.978 752.016 468.43 718.547 485.6 681.8C390.1 688.3 291.5 653.8 200 582.2L146 613.3C154.4 644.4 166.8 674.3 182.7 702.1Z" fill="#00B4FF"/>
<path d="M512 131.7C479.9 131.8 448 135.9 416.8 144.1V243.1C383.992 254.661 353.588 272.152 327.1 294.7C338.1 334.9 355.3 371.6 378.1 404.2C420.2 318.2 499.4 250.2 607.1 206.6V144.3C576.2 136.1 544.1 131.9 512 131.7Z" fill="#00B4FF"/>
<path d="M512 66.4C757.7 66.4 957.6 266.3 957.6 512C957.6 757.7 757.7 957.6 512 957.6C266.3 957.6 66.4 757.7 66.4 512C66.4 266.3 266.3 66.4 512 66.4ZM512 1C376.474 1 246.5 54.8373 150.668 150.668C54.8373 246.5 1 376.474 1 512C1 647.526 54.8373 777.5 150.668 873.332C246.5 969.163 376.474 1023 512 1023C647.526 1023 777.5 969.163 873.332 873.332C969.163 777.5 1023 647.526 1023 512C1023 376.474 969.163 246.5 873.332 150.668C777.5 54.8373 647.526 1 512 1Z" fill="#00B4FF"/>
</svg>
