<svg width="127" height="127" viewBox="0 0 127 127" fill="none" xmlns="http://www.w3.org/2000/svg">
<g clip-path="url(#clip0_1385_1606)">
<path d="M27.2001 79.9998C27.2001 87.2998 21.3 93.1998 14 93.1998C6.70005 93.1998 0.800049 87.2998 0.800049 79.9998C0.800049 72.6998 6.70005 66.7998 14 66.7998H27.2001V79.9998ZM33.8 79.9998C33.8 72.6998 39.7 66.7998 47 66.7998C54.3 66.7998 60.2001 72.6998 60.2001 79.9998V113C60.2001 120.3 54.3 126.2 47 126.2C39.7 126.2 33.8 120.3 33.8 113V79.9998Z" fill="#E01E5A"/>
<path d="M47 27.0001C39.7 27.0001 33.7999 21.1001 33.7999 13.8001C33.7999 6.5001 39.7 0.600098 47 0.600098C54.3 0.600098 60.2 6.5001 60.2 13.8001V27.0001H47ZM47 33.7001C54.3 33.7001 60.2 39.6001 60.2 46.9001C60.2 54.2001 54.3 60.1001 47 60.1001H13.9C6.59995 60.1001 0.699951 54.2001 0.699951 46.9001C0.699951 39.6001 6.59995 33.7001 13.9 33.7001H47Z" fill="#36C5F0"/>
<path d="M99.8999 46.9001C99.8999 39.6001 105.8 33.7001 113.1 33.7001C120.4 33.7001 126.3 39.6001 126.3 46.9001C126.3 54.2001 120.4 60.1001 113.1 60.1001H99.8999V46.9001ZM93.2999 46.9001C93.2999 54.2001 87.3999 60.1001 80.0999 60.1001C72.7999 60.1001 66.8999 54.2001 66.8999 46.9001V13.8001C66.8999 6.5001 72.7999 0.600098 80.0999 0.600098C87.3999 0.600098 93.2999 6.5001 93.2999 13.8001V46.9001Z" fill="#2EB67D"/>
<path d="M80.0999 99.7998C87.3999 99.7998 93.2999 105.7 93.2999 113C93.2999 120.3 87.3999 126.2 80.0999 126.2C72.7999 126.2 66.8999 120.3 66.8999 113V99.7998H80.0999ZM80.0999 93.1998C72.7999 93.1998 66.8999 87.2998 66.8999 79.9998C66.8999 72.6998 72.7999 66.7998 80.0999 66.7998H113.2C120.5 66.7998 126.4 72.6998 126.4 79.9998C126.4 87.2998 120.5 93.1998 113.2 93.1998H80.0999Z" fill="#ECB22E"/>
</g>
<defs>
<clipPath id="clip0_1385_1606">
<rect width="127" height="127" fill="white"/>
</clipPath>
</defs>
</svg>
