<svg width="32" height="32" viewBox="0 0 32 32" fill="none" xmlns="http://www.w3.org/2000/svg">
<path d="M26.0466 0H5.65311C2.53098 0 0 2.53098 0 5.65311V26.0466C0 29.1687 2.53098 31.6997 5.65311 31.6997H26.0466C29.1687 31.6997 31.6997 29.1687 31.6997 26.0466V5.65311C31.6997 2.53098 29.1687 0 26.0466 0Z" fill="#4945FF"/>
<path fill-rule="evenodd" clip-rule="evenodd" d="M21.9794 9.5625H11.1621V14.9658H16.5762C16.6634 14.9658 16.7342 15.0366 16.7342 15.1238V20.5376H22.1374V9.7205C22.1374 9.63325 22.0667 9.5625 21.9794 9.5625Z" fill="white"/>
<path opacity="0.42" fill-rule="evenodd" clip-rule="evenodd" d="M11.1628 9.56238V14.9655H5.95026C5.87987 14.9655 5.84462 14.8804 5.8944 14.8306L11.1628 9.56238Z" fill="white"/>
<path opacity="0.42" fill-rule="evenodd" clip-rule="evenodd" d="M16.8692 25.8057C16.8195 25.8555 16.7344 25.8202 16.7344 25.7498V20.5374H22.1376L16.8692 25.8057Z" fill="white"/>
<path opacity="0.42" d="M11.1641 14.9657H16.6572C16.7008 14.9657 16.7362 15.0011 16.7362 15.0447V20.5377H11.3221C11.2348 20.5377 11.1641 20.4669 11.1641 20.3796V14.9657Z" fill="white"/>
</svg>
