<svg width="192" height="192" viewBox="0 0 192 192" fill="none" xmlns="http://www.w3.org/2000/svg">
<path d="M131.97 75H179.36C183.837 75 187.467 78.6294 187.467 83.1066V126.273C187.467 142.727 174.127 156.067 157.673 156.067H157.532C141.077 156.069 127.736 142.732 127.733 126.277V79.2368C127.733 76.8969 129.63 75 131.97 75Z" fill="#5059C9"/>
<path d="M164 66.4669C174.604 66.4669 183.2 57.8708 183.2 47.2669C183.2 36.663 174.604 28.0669 164 28.0669C153.396 28.0669 144.8 36.663 144.8 47.2669C144.8 57.8708 153.396 66.4669 164 66.4669Z" fill="#5059C9"/>
<path d="M104.267 66.4667C119.584 66.4667 132 54.0501 132 38.7333C132 23.4166 119.584 11 104.267 11C88.9501 11 76.5334 23.4166 76.5334 38.7333C76.5334 54.0501 88.9501 66.4667 104.267 66.4667Z" fill="#7B83EB"/>
<path d="M141.246 75H63.0208C58.597 75.1095 55.0974 78.7808 55.2001 83.2048V132.438C54.5823 158.986 75.586 181.017 102.133 181.667C128.681 181.017 149.684 158.986 149.067 132.438V83.2048C149.169 78.7808 145.67 75.1095 141.246 75Z" fill="#7B83EB"/>
<path opacity="0.1" d="M106.4 75V143.992C106.379 147.156 104.462 149.998 101.536 151.203C100.605 151.597 99.6034 151.8 98.592 151.8H58.9547C58.4 150.392 57.888 148.984 57.4613 147.533C55.9678 142.638 55.2057 137.548 55.2 132.429V83.192C55.0974 78.7751 58.5912 75.1095 63.008 75H106.4Z" fill="black"/>
<path opacity="0.2" d="M102.133 75V148.259C102.133 149.27 101.93 150.271 101.536 151.203C100.331 154.128 97.4892 156.045 94.3254 156.067H60.96C60.2347 154.659 59.552 153.251 58.9547 151.8C58.3573 150.349 57.888 148.984 57.4613 147.533C55.9678 142.638 55.2057 137.548 55.2 132.429V83.192C55.0974 78.7751 58.5912 75.1095 63.008 75H102.133Z" fill="black"/>
<path opacity="0.2" d="M102.134 75V139.725C102.101 144.024 98.6243 147.501 94.3255 147.533H57.4616C55.968 142.638 55.206 137.548 55.2002 132.429V83.192C55.0976 78.7751 58.5914 75.1095 63.0082 75H102.134Z" fill="black"/>
<path opacity="0.2" d="M97.8668 75V139.725C97.8343 144.024 94.3576 147.501 90.0588 147.533H57.4616C55.968 142.638 55.206 137.548 55.2002 132.429V83.192C55.0976 78.7751 58.5914 75.1095 63.0082 75H97.8668Z" fill="black"/>
<path opacity="0.1" d="M106.4 52.9417V66.3817C105.675 66.4243 104.992 66.4671 104.267 66.4671C103.541 66.4671 102.859 66.4244 102.133 66.3817C100.693 66.2861 99.2648 66.0576 97.8666 65.6991C89.2266 63.653 82.0886 57.5936 78.6666 49.4004C78.0779 48.0245 77.6207 46.5959 77.3013 45.1338H98.5919C102.897 45.1501 106.384 48.6362 106.4 52.9417Z" fill="black"/>
<path opacity="0.2" d="M102.133 57.2083V66.3817C100.693 66.2861 99.2649 66.0576 97.8667 65.699C89.2267 63.6529 82.0887 57.5935 78.6667 49.4004H94.3254C98.6308 49.4167 102.117 52.9029 102.133 57.2083Z" fill="black"/>
<path opacity="0.2" d="M102.133 57.2083V66.3817C100.693 66.2861 99.2649 66.0576 97.8667 65.699C89.2267 63.6529 82.0887 57.5935 78.6667 49.4004H94.3254C98.6308 49.4167 102.117 52.9029 102.133 57.2083Z" fill="black"/>
<path opacity="0.2" d="M97.8667 57.2084V65.699C89.2267 63.6529 82.0887 57.5935 78.6667 49.4004H90.0587C94.3642 49.4168 97.8504 52.903 97.8667 57.2084Z" fill="black"/>
<path d="M11.8208 49.4004H90.0458C94.3651 49.4004 97.8665 52.9019 97.8665 57.2211V135.446C97.8665 139.765 94.365 143.267 90.0458 143.267H11.8208C7.50144 143.267 4 139.765 4 135.446V57.2211C4 52.9019 7.50152 49.4004 11.8208 49.4004Z" fill="url(#paint0_linear_1385_1627)"/>
<path d="M71.5159 79.1728H55.8785V121.754H45.9159V79.1728H30.3511V70.9126H71.5159V79.1728Z" fill="white"/>
<defs>
<linearGradient id="paint0_linear_1385_1627" x1="20.3065" y1="43.2893" x2="81.5601" y2="149.378" gradientUnits="userSpaceOnUse">
<stop stop-color="#5A62C3"/>
<stop offset="0.5" stop-color="#4D55BD"/>
<stop offset="1" stop-color="#3940AB"/>
</linearGradient>
</defs>
</svg>
