<svg width="267" height="267" viewBox="0 0 267 267" fill="none" xmlns="http://www.w3.org/2000/svg">
<g clip-path="url(#clip0_1386_1761)">
<path d="M265.334 0H0V265.334H265.334V0Z" fill="white"/>
<path d="M0 133.334V266.667H266.667V0H0V133.334ZM219.334 125.211C227.087 128.176 234.838 137.455 237.334 140.534C235.31 142.344 222.367 152.114 220.488 153.555C219.523 152.89 217.244 150.979 214.267 148.667C210.096 145.43 208.534 144 204.267 144C194.134 144 188.534 153.067 193.867 160.8C194.934 162.267 203.867 167.467 213.734 172.4C239.2 184.934 245.334 192.534 245.334 211.467C245.2 225.2 238.267 235.334 224.667 241.6C219.787 243.358 215.734 244.667 204.667 244.534C189.067 244.534 177.867 240 170.934 234C164.527 227.778 160.774 220.614 160.134 219.467C161.186 218.791 164.934 216.534 170 213.6L179.307 208.056L183.734 213.2C195.2 227.067 220 225.2 220 210.534C220 204.267 214.534 199.467 201.6 194.134C196.667 192.134 189.467 188.534 185.6 186.267C160.267 171.2 160.934 137.067 186.667 125.467C194.267 122 208.78 120.569 219.334 125.211ZM153.334 134.667V145.334H118.667V244H94.6668V145.334H58.6667C58.4347 138.051 58.6667 132.079 58.6747 123.843L153.334 124V134.667Z" fill="#007ACC"/>
</g>
<defs>
<clipPath id="clip0_1386_1761">
<rect width="266.667" height="266.667" fill="white"/>
</clipPath>
</defs>
</svg>
