<svg width="538" height="340" viewBox="0 0 538 340" fill="none" xmlns="http://www.w3.org/2000/svg">
<path d="M51.757 335.031C41.2168 335.541 32.5395 334.289 25.5259 331.677C33.5527 336.919 44.7721 339.756 59.757 339.031C123.34 335.955 203.258 246.124 128.222 184.874C127.397 185.147 126.575 185.423 125.755 185.699C191.12 246.729 113.69 332.034 51.757 335.031Z" fill="white"/>
<path d="M120.222 180.874C75.1281 195.812 38.4904 215.665 19.2581 242.031C-3.18464 272.799 -9.07609 318.789 25.5259 331.677C0.0519371 315.038 6.7336 274.169 27.2581 246.031C46.1384 220.147 81.7929 200.541 125.755 185.699C124.013 184.073 122.17 182.464 120.222 180.874Z" fill="white"/>
<path d="M152.461 171.356C142.036 174.1 131.907 177.055 122.163 180.236C124.286 181.762 126.305 183.309 128.222 184.874C135.403 182.495 142.798 180.241 150.372 178.105C150.913 176.264 151.627 173.913 152.461 171.356Z" fill="white"/>
<path d="M155.257 3.53123C155.257 3.53123 1.25694 108.531 103.507 169.281C109.77 173.002 115.326 176.877 120.222 180.874C120.868 180.66 121.514 180.448 122.163 180.236C118.866 177.866 115.317 175.545 111.507 173.281C9.25694 112.531 163.257 7.53123 163.257 7.53123C163.257 7.53123 167.258 5.03125 164.258 2.03125C161.258 -0.968746 155.257 3.53123 155.257 3.53123Z" fill="white"/>
<path d="M149.258 192.031C149.258 192.031 151.209 184.75 153.894 177.124C152.716 177.448 151.542 177.775 150.372 178.105C149.668 180.499 149.258 182.031 149.258 182.031C149.258 182.031 148.258 185.04 148.258 187.031C148.258 189.023 149.258 192.031 149.258 192.031Z" fill="white"/>
<path d="M152.461 171.356C151.627 173.913 150.913 176.264 150.372 178.105C151.542 177.775 152.716 177.448 153.894 177.124C154.705 174.819 155.584 172.484 156.495 170.308C155.146 170.654 153.801 171.003 152.461 171.356Z" fill="white"/>
<path d="M172.655 166.377C170.031 158.843 167.227 149.991 163.82 149.938C160.174 149.88 155.514 161.996 152.461 171.356C153.801 171.003 155.146 170.654 156.495 170.308C158.91 164.544 161.56 159.902 163.82 159.938C165.833 159.969 167.635 163.071 169.313 167.157C170.425 166.895 171.539 166.635 172.655 166.377Z" fill="white"/>
<path d="M153.894 177.124C159.618 175.548 165.439 174.038 171.342 172.592C170.683 170.71 170.009 168.849 169.313 167.157C164.998 168.174 160.724 169.224 156.495 170.308C155.584 172.484 154.705 174.819 153.894 177.124Z" fill="white"/>
<path d="M172.655 166.377C171.539 166.635 170.425 166.895 169.313 167.157C170.009 168.849 170.683 170.71 171.342 172.592C172.447 172.321 173.554 172.053 174.664 171.787C174.002 170.189 173.334 168.327 172.655 166.377Z" fill="white"/>
<path d="M182.402 169.976C183.03 168.106 183.664 165.984 184.308 163.785C180.396 164.624 176.51 165.488 172.655 166.377C173.334 168.327 174.002 170.189 174.664 171.787C177.229 171.172 179.809 170.568 182.402 169.976Z" fill="white"/>
<path d="M178.383 186.844C180.789 186.844 183.113 177.751 185.637 169.246C184.556 169.487 183.478 169.731 182.402 169.976C181.055 173.986 179.732 176.844 178.383 176.844C177.127 176.844 175.904 174.776 174.664 171.787C173.554 172.053 172.447 172.321 171.342 172.592C173.787 179.574 176.029 186.844 178.383 186.844Z" fill="white"/>
<path d="M184.308 163.785C183.664 165.984 183.03 168.106 182.402 169.976C183.478 169.731 184.556 169.487 185.637 169.246C186.272 167.105 186.92 165.001 187.585 163.089C186.49 163.319 185.398 163.551 184.308 163.785Z" fill="white"/>
<path d="M201.735 160.241C199.1 152.909 196.146 144.75 192.945 144.75C189.676 144.75 186.908 154.901 184.308 163.785C185.398 163.551 186.49 163.319 187.585 163.089C189.242 158.325 191.005 154.75 192.945 154.75C194.754 154.75 196.484 157.355 198.122 160.945C199.325 160.708 200.529 160.473 201.735 160.241Z" fill="white"/>
<path d="M185.637 169.246C190.46 168.167 195.329 167.128 200.234 166.126C199.549 164.3 198.844 162.527 198.122 160.945C194.592 161.64 191.078 162.355 187.585 163.089C186.92 165.001 186.272 167.105 185.637 169.246Z" fill="white"/>
<path d="M201.735 160.241C200.529 160.473 199.325 160.708 198.122 160.945C198.844 162.527 199.549 164.3 200.234 166.126C201.37 165.894 202.508 165.664 203.647 165.436C203.048 163.894 202.429 162.172 201.791 160.397L201.735 160.241Z" fill="white"/>
<path d="M211.503 163.902C210.048 168.371 208.708 171.656 207.508 171.656C206.338 171.656 205.047 169.038 203.647 165.436C202.508 165.664 201.37 165.894 200.234 166.126C202.99 173.468 205.439 181.656 207.508 181.656C209.565 181.656 212.035 172.001 214.785 163.282C213.69 163.487 212.596 163.694 211.503 163.902Z" fill="white"/>
<path d="M213.308 158.087C209.434 158.783 205.575 159.501 201.735 160.241L201.791 160.397C202.429 162.172 203.048 163.894 203.647 165.436C206.256 164.914 208.875 164.403 211.503 163.902C212.086 162.113 212.686 160.134 213.304 158.101C213.305 158.096 213.306 158.091 213.308 158.087Z" fill="white"/>
<path d="M211.503 163.902C212.596 163.694 213.69 163.487 214.785 163.282C215.426 161.251 216.082 159.27 216.751 157.474C215.602 157.677 214.454 157.881 213.308 158.087L213.304 158.101C212.686 160.134 212.086 162.113 211.503 163.902Z" fill="white"/>
<path d="M230.891 155.088C228.218 147.747 225.211 139.562 222.07 139.562C218.933 139.562 215.967 149.329 213.308 158.087C214.454 157.881 215.602 157.677 216.751 157.474C218.447 152.926 220.229 149.562 222.07 149.562C223.832 149.562 225.551 152.137 227.193 155.693C228.425 155.489 229.658 155.287 230.891 155.088Z" fill="white"/>
<path d="M214.785 163.282C219.586 162.385 224.414 161.522 229.263 160.691C228.589 158.928 227.898 157.22 227.193 155.693C223.703 156.27 220.221 156.864 216.751 157.474C216.082 159.27 215.426 161.251 214.785 163.282Z" fill="white"/>
<path d="M230.891 155.088C229.658 155.287 228.425 155.489 227.193 155.693C227.898 157.22 228.589 158.928 229.263 160.691C230.426 160.492 231.59 160.294 232.755 160.099C232.176 158.614 231.577 156.969 230.96 155.275L230.959 155.274L230.891 155.088Z" fill="white"/>
<path d="M240.574 158.817C239.117 163.247 237.786 166.489 236.633 166.469C235.489 166.449 234.184 163.765 232.755 160.099C231.59 160.294 230.426 160.492 229.263 160.691C232.087 168.08 234.612 176.434 236.633 176.469C238.607 176.503 241.101 166.976 243.862 158.295C242.765 158.467 241.669 158.641 240.574 158.817Z" fill="white"/>
<path d="M242.307 153.302C238.495 153.878 234.688 154.473 230.891 155.088L230.959 155.274L230.96 155.275C231.577 156.969 232.176 158.614 232.755 160.099C235.356 159.662 237.963 159.235 240.574 158.817C241.134 157.115 241.713 155.237 242.307 153.302Z" fill="white"/>
<path d="M240.574 158.817C241.669 158.641 242.765 158.467 243.862 158.295C244.47 156.382 245.092 154.511 245.723 152.791C244.584 152.96 243.445 153.13 242.307 153.302C241.713 155.237 241.134 157.115 240.574 158.817Z" fill="white"/>
<path d="M260.319 150.721C257.54 143.184 254.378 134.375 251.195 134.375C248.121 134.375 245.104 144.197 242.408 152.974L242.307 153.302C243.445 153.13 244.584 152.96 245.723 152.791C247.487 147.989 249.331 144.375 251.195 144.375C253.031 144.375 254.859 147.304 256.612 151.23C257.847 151.059 259.083 150.889 260.319 150.721Z" fill="white"/>
<path d="M243.862 158.295C248.761 157.526 253.673 156.788 258.591 156.081C257.945 154.39 257.284 152.737 256.612 151.23C252.979 151.734 249.349 152.254 245.723 152.791C245.092 154.511 244.47 156.382 243.862 158.295Z" fill="white"/>
<path d="M260.319 150.721C259.083 150.889 257.847 151.059 256.612 151.23C257.284 152.737 257.945 154.39 258.591 156.081C259.781 155.91 260.971 155.74 262.161 155.573C261.57 154.103 260.955 152.445 260.319 150.721Z" fill="white"/>
<path d="M269.339 154.584C268.001 158.504 266.787 161.281 265.758 161.281C264.718 161.281 263.503 158.909 262.161 155.573C260.971 155.74 259.781 155.91 258.591 156.081C261.363 163.336 263.856 171.281 265.758 171.281C267.587 171.281 269.998 162.511 272.658 154.14C271.552 154.287 270.446 154.434 269.339 154.584Z" fill="white"/>
<path d="M271.04 149.313C267.467 149.767 263.893 150.237 260.319 150.721C260.955 152.445 261.57 154.103 262.161 155.573C264.553 155.236 266.946 154.906 269.339 154.584C269.887 152.981 270.455 151.187 271.04 149.313Z" fill="white"/>
<path d="M269.339 154.584C270.446 154.434 271.552 154.287 272.658 154.14C273.23 152.341 273.813 150.561 274.405 148.889C273.284 149.029 272.162 149.17 271.04 149.313C270.455 151.187 269.887 152.981 269.339 154.584Z" fill="white"/>
<path d="M289.78 147.062C286.892 139.061 283.551 129.188 280.32 129.188C277.136 129.188 273.888 140.192 271.04 149.313C272.162 149.17 273.284 149.029 274.405 148.889C276.327 143.461 278.336 139.188 280.32 139.188C282.281 139.188 284.282 142.824 286.198 147.472C287.393 147.334 288.587 147.197 289.78 147.062Z" fill="white"/>
<path d="M272.658 154.14C277.783 153.463 282.908 152.817 288.023 152.201C287.427 150.579 286.817 148.973 286.198 147.472C282.273 147.927 278.341 148.399 274.405 148.889C273.813 150.561 273.23 152.341 272.658 154.14Z" fill="white"/>
<path d="M289.78 147.062C288.587 147.197 287.393 147.334 286.198 147.472C286.817 148.973 287.427 150.579 288.023 152.201C289.199 152.06 290.374 151.92 291.548 151.782C290.982 150.367 290.391 148.756 289.78 147.062Z" fill="white"/>
<path d="M298.277 151.006C296.992 154.578 295.837 157.076 294.883 157.094C293.938 157.111 292.806 154.931 291.548 151.782C290.374 151.92 289.199 152.06 288.023 152.201C290.703 159.492 293.118 167.126 294.883 167.094C296.635 167.061 299.061 158.674 301.732 150.62C300.581 150.747 299.43 150.875 298.277 151.006Z" fill="white"/>
<path d="M299.993 145.941C296.596 146.302 293.191 146.675 289.78 147.062C290.391 148.756 290.982 150.367 291.548 151.782C293.793 151.517 296.037 151.259 298.277 151.006C298.827 149.477 299.401 147.753 299.993 145.941Z" fill="white"/>
<path d="M298.277 151.006C299.43 150.875 300.581 150.747 301.732 150.62C302.304 148.894 302.888 147.184 303.478 145.575C302.317 145.696 301.156 145.818 299.993 145.941C299.401 147.753 298.827 149.477 298.277 151.006Z" fill="white"/>
<path d="M318.381 144.099C315.543 136.067 312.641 126.019 309.445 126C306.278 125.981 302.911 137.014 299.993 145.941C301.156 145.818 302.317 145.696 303.478 145.575C305.441 140.226 307.482 135.988 309.445 136C311.385 136.011 313.215 139.716 314.99 144.423C316.122 144.314 317.252 144.206 318.381 144.099Z" fill="white"/>
<path d="M301.732 150.62C306.719 150.068 311.69 149.545 316.639 149.048C316.094 147.463 315.545 145.894 314.99 144.423C311.167 144.791 307.329 145.175 303.478 145.575C302.888 147.184 302.304 148.894 301.732 150.62Z" fill="white"/>
<path d="M318.381 144.099C317.252 144.206 316.122 144.314 314.99 144.423C315.545 145.894 316.094 147.463 316.639 149.048C317.804 148.931 318.967 148.815 320.13 148.701C319.548 147.323 318.966 145.754 318.381 144.099Z" fill="white"/>
<path d="M328.008 147.947C326.674 151.489 325.346 153.941 324.008 153.906C322.704 153.872 321.418 151.755 320.13 148.701C318.967 148.815 317.804 148.931 316.639 149.048C319.127 156.281 321.534 163.841 324.008 163.906C326.461 163.971 328.881 155.675 331.362 147.638C330.246 147.74 329.128 147.843 328.008 147.947Z" fill="white"/>
<path d="M329.673 143.075C325.928 143.402 322.163 143.743 318.381 144.099C318.966 145.754 319.548 147.323 320.13 148.701C322.763 148.442 325.39 148.191 328.008 147.947C328.562 146.477 329.116 144.82 329.673 143.075Z" fill="white"/>
<path d="M328.008 147.947C329.128 147.843 330.246 147.74 331.362 147.638C331.871 145.988 332.383 144.35 332.898 142.796C331.825 142.888 330.75 142.981 329.673 143.075C329.116 144.82 328.562 146.477 328.008 147.947Z" fill="white"/>
<path d="M347.753 141.593C344.81 133.453 341.774 122.812 338.57 122.812C335.451 122.812 332.535 134.101 329.673 143.075C330.75 142.981 331.825 142.888 332.898 142.796C334.733 137.263 336.612 132.812 338.57 132.812C340.544 132.812 342.455 136.853 344.319 141.86C345.466 141.77 346.611 141.681 347.753 141.593Z" fill="white"/>
<path d="M331.362 147.638C336.25 147.192 341.107 146.772 345.927 146.375C345.395 144.839 344.859 143.309 344.319 141.86C340.537 142.158 336.728 142.47 332.898 142.796C332.383 144.35 331.871 145.988 331.362 147.638Z" fill="white"/>
<path d="M347.753 141.593C346.611 141.681 345.466 141.77 344.319 141.86C344.859 143.309 345.395 144.839 345.927 146.375C347.125 146.276 348.32 146.179 349.513 146.083C348.93 144.758 348.343 143.226 347.753 141.593Z" fill="white"/>
<path d="M356.773 145.515C355.576 148.604 354.382 150.719 353.133 150.719C351.936 150.719 350.732 148.852 349.513 146.083C348.32 146.179 347.125 146.276 345.927 146.375C348.389 153.479 350.777 160.719 353.133 160.719C355.546 160.719 357.755 152.824 360.177 145.259C359.045 145.343 357.91 145.429 356.773 145.515Z" fill="white"/>
<path d="M358.413 140.807C354.886 141.057 351.332 141.319 347.753 141.593C348.343 143.226 348.93 144.758 349.513 146.083C351.944 145.888 354.364 145.699 356.773 145.515C357.317 144.111 357.862 142.506 358.413 140.807Z" fill="white"/>
<path d="M356.773 145.515C357.91 145.429 359.045 145.343 360.177 145.259C360.69 143.657 361.213 142.069 361.749 140.574C360.64 140.651 359.528 140.728 358.413 140.807C357.862 142.506 357.317 144.111 356.773 145.515Z" fill="white"/>
<path d="M378.758 137.266C378.758 137.266 371.758 120.531 367.695 121.625C364.014 121.682 361.139 132.398 358.413 140.807C359.528 140.728 360.64 140.651 361.749 140.574C363.533 135.602 365.466 131.659 367.695 131.625C370.258 131.531 372.999 136.531 372.999 136.531C373.666 137.621 374.262 138.683 374.792 139.72C376.444 139.618 378.088 139.518 379.724 139.421C379.427 138.714 379.106 137.996 378.758 137.266Z" fill="white"/>
<path d="M360.177 145.259C365.758 144.845 371.276 144.462 376.719 144.107C376.204 142.697 375.568 141.236 374.792 139.72C370.493 139.987 366.144 140.271 361.749 140.574C361.213 142.069 360.69 143.657 360.177 145.259Z" fill="white"/>
<path d="M379.724 139.421C378.088 139.518 376.444 139.618 374.792 139.72C375.568 141.236 376.204 142.697 376.719 144.107C378.253 144.007 379.781 143.909 381.303 143.813C380.88 142.398 380.359 140.935 379.724 139.421Z" fill="white"/>
<path d="M376.719 144.107C385.241 167.413 360.876 176.787 389.63 188.926C369.727 176.965 388.07 166.449 381.303 143.813C379.781 143.909 378.253 144.007 376.719 144.107Z" fill="white"/>
<path d="M446.087 140.804C444.786 139.458 443.395 138.087 441.91 136.69C423.292 137.228 402.255 138.083 379.724 139.421C380.359 140.935 380.88 142.398 381.303 143.813C404.713 142.344 426.642 141.401 446.087 140.804Z" fill="white"/>
<path d="M395.258 191.031C393.198 190.345 391.328 189.643 389.63 188.926C392.592 190.706 396.4 192.412 401.258 194.031C437.354 206.063 498.868 188.705 448.989 140.717C448.028 140.745 447.061 140.774 446.087 140.804C490.205 186.446 430.569 202.802 395.258 191.031Z" fill="white"/>
<path d="M441.91 136.69C443.395 138.087 444.786 139.458 446.087 140.804C447.061 140.774 448.028 140.745 448.989 140.717C447.594 139.374 446.11 138.007 444.537 136.616C443.667 136.64 442.791 136.665 441.91 136.69Z" fill="white"/>
<path d="M443.758 46.5312C443.758 46.5312 330.758 56.5312 419.508 118.781C428.598 125.157 435.996 131.126 441.91 136.69C442.791 136.665 443.667 136.64 444.537 136.616C439.251 131.943 432.946 126.998 425.508 121.781C336.758 59.5312 449.758 49.5312 449.758 49.5312C449.758 49.5312 449.258 48.0312 447.758 47.0312C446.258 46.0312 443.758 46.5312 443.758 46.5312Z" fill="white"/>
<path d="M536.758 137.031C535.901 135.531 521.758 136.031 521.758 136.031C521.758 136.031 491.022 135.333 444.537 136.616C446.11 138.007 447.594 139.374 448.989 140.717C497.452 139.297 529.758 140.031 529.758 140.031C529.758 140.031 538.758 140.531 536.758 137.031Z" fill="white"/>
<path d="M483.758 178.031C483.758 173.613 487.34 170.031 491.758 170.031C496.176 170.031 499.758 173.613 499.758 178.031C499.758 182.45 496.176 186.031 491.758 186.031C487.34 186.031 483.758 182.45 483.758 178.031Z" fill="white"/>
<path d="M120.222 180.874C75.1281 195.812 38.4904 215.665 19.2581 242.031C-3.18464 272.799 -9.07609 318.789 25.5259 331.677M120.222 180.874C115.326 176.877 109.77 173.002 103.507 169.281C1.25694 108.531 155.257 3.53123 155.257 3.53123C155.257 3.53123 161.258 -0.968746 164.258 2.03125C167.258 5.03125 163.257 7.53123 163.257 7.53123C163.257 7.53123 9.25694 112.531 111.507 173.281C115.317 175.545 118.866 177.866 122.163 180.236M120.222 180.874C122.17 182.464 124.013 184.073 125.755 185.699M120.222 180.874C120.868 180.66 121.514 180.448 122.163 180.236M128.222 184.874C203.258 246.124 123.34 335.955 59.757 339.031C44.7721 339.756 33.5527 336.919 25.5259 331.677M128.222 184.874C127.397 185.147 126.575 185.423 125.755 185.699M128.222 184.874C126.305 183.309 124.286 181.762 122.163 180.236M128.222 184.874C135.403 182.495 142.798 180.241 150.372 178.105M389.63 188.926C391.328 189.643 393.198 190.345 395.258 191.031C430.569 202.802 490.205 186.446 446.087 140.804M389.63 188.926C392.592 190.706 396.4 192.412 401.258 194.031C437.354 206.063 498.868 188.705 448.989 140.717M389.63 188.926C360.876 176.787 385.241 167.413 376.719 144.107M389.63 188.926C369.727 176.965 388.07 166.449 381.303 143.813M25.5259 331.677C32.5395 334.289 41.2168 335.541 51.757 335.031C113.69 332.034 191.12 246.729 125.755 185.699M25.5259 331.677C0.0519371 315.038 6.7336 274.169 27.2581 246.031C46.1384 220.147 81.7929 200.541 125.755 185.699M152.461 171.356C142.036 174.1 131.907 177.055 122.163 180.236M152.461 171.356C151.627 173.913 150.913 176.264 150.372 178.105M152.461 171.356C155.514 161.996 160.174 149.88 163.82 149.938C167.227 149.991 170.031 158.843 172.655 166.377M152.461 171.356C153.801 171.003 155.146 170.654 156.495 170.308M150.372 178.105C149.668 180.499 149.258 182.031 149.258 182.031C149.258 182.031 148.258 185.04 148.258 187.031C148.258 189.023 149.258 192.031 149.258 192.031C149.258 192.031 151.209 184.75 153.894 177.124M150.372 178.105C151.542 177.775 152.716 177.448 153.894 177.124M153.894 177.124C154.705 174.819 155.584 172.484 156.495 170.308M153.894 177.124C159.618 175.548 165.439 174.038 171.342 172.592M156.495 170.308C158.91 164.544 161.56 159.902 163.82 159.938C165.833 159.969 167.635 163.071 169.313 167.157M156.495 170.308C160.724 169.224 164.998 168.174 169.313 167.157M172.655 166.377C171.539 166.635 170.425 166.895 169.313 167.157M172.655 166.377C173.334 168.327 174.002 170.189 174.664 171.787M172.655 166.377C176.51 165.488 180.396 164.624 184.308 163.785M169.313 167.157C170.009 168.849 170.683 170.71 171.342 172.592M171.342 172.592C173.787 179.574 176.029 186.844 178.383 186.844C180.789 186.844 183.113 177.751 185.637 169.246M171.342 172.592C172.447 172.321 173.554 172.053 174.664 171.787M174.664 171.787C175.904 174.776 177.127 176.844 178.383 176.844C179.732 176.844 181.055 173.986 182.402 169.976M174.664 171.787C177.229 171.172 179.809 170.568 182.402 169.976M182.402 169.976C183.03 168.106 183.664 165.984 184.308 163.785M182.402 169.976C183.478 169.731 184.556 169.487 185.637 169.246M184.308 163.785C186.908 154.901 189.676 144.75 192.945 144.75C196.146 144.75 199.1 152.909 201.735 160.241M184.308 163.785C185.398 163.551 186.49 163.319 187.585 163.089M185.637 169.246C186.272 167.105 186.92 165.001 187.585 163.089M185.637 169.246C190.46 168.167 195.329 167.128 200.234 166.126M187.585 163.089C189.242 158.325 191.005 154.75 192.945 154.75C194.754 154.75 196.484 157.355 198.122 160.945M187.585 163.089C191.078 162.355 194.592 161.64 198.122 160.945M201.735 160.241C200.529 160.473 199.325 160.708 198.122 160.945M201.735 160.241L201.791 160.397M201.735 160.241C201.754 160.293 201.773 160.345 201.791 160.397M201.735 160.241C205.575 159.501 209.434 158.783 213.308 158.087M198.122 160.945C198.844 162.527 199.549 164.3 200.234 166.126M200.234 166.126C202.99 173.468 205.439 181.656 207.508 181.656C209.565 181.656 212.035 172.001 214.785 163.282M200.234 166.126C201.37 165.894 202.508 165.664 203.647 165.436M203.647 165.436C203.048 163.894 202.429 162.172 201.791 160.397M203.647 165.436C205.047 169.038 206.338 171.656 207.508 171.656C208.708 171.656 210.048 168.371 211.503 163.902M203.647 165.436C206.256 164.914 208.875 164.403 211.503 163.902M211.503 163.902C212.596 163.694 213.69 163.487 214.785 163.282M211.503 163.902C212.086 162.113 212.686 160.134 213.304 158.101M214.785 163.282C215.426 161.251 216.082 159.27 216.751 157.474M214.785 163.282C219.586 162.385 224.414 161.522 229.263 160.691M213.308 158.087C215.967 149.329 218.933 139.562 222.07 139.562C225.211 139.562 228.218 147.747 230.891 155.088M213.308 158.087C214.454 157.881 215.602 157.677 216.751 157.474M213.308 158.087L213.304 158.101M213.308 158.087C213.306 158.091 213.305 158.096 213.304 158.101M216.751 157.474C218.447 152.926 220.229 149.562 222.07 149.562C223.832 149.562 225.551 152.137 227.193 155.693M216.751 157.474C220.221 156.864 223.703 156.27 227.193 155.693M230.891 155.088C229.658 155.287 228.425 155.489 227.193 155.693M230.891 155.088L230.959 155.274M230.891 155.088C230.914 155.15 230.937 155.212 230.959 155.274M230.891 155.088C234.688 154.473 238.495 153.878 242.307 153.302M227.193 155.693C227.898 157.22 228.589 158.928 229.263 160.691M229.263 160.691C232.087 168.08 234.612 176.434 236.633 176.469C238.607 176.503 241.101 166.976 243.862 158.295M229.263 160.691C230.426 160.492 231.59 160.294 232.755 160.099M232.755 160.099C234.184 163.765 235.489 166.449 236.633 166.469C237.786 166.489 239.117 163.247 240.574 158.817M232.755 160.099C235.356 159.662 237.963 159.235 240.574 158.817M232.755 160.099C232.176 158.614 231.577 156.969 230.96 155.275L230.959 155.274M240.574 158.817C241.669 158.641 242.765 158.467 243.862 158.295M240.574 158.817C241.134 157.115 241.713 155.237 242.307 153.302M243.862 158.295C244.47 156.382 245.092 154.511 245.723 152.791M243.862 158.295C248.761 157.526 253.673 156.788 258.591 156.081M242.307 153.302C243.445 153.13 244.584 152.96 245.723 152.791M242.307 153.302L242.408 152.974M242.307 153.302C242.341 153.193 242.375 153.083 242.408 152.974M245.723 152.791C247.487 147.989 249.331 144.375 251.195 144.375C253.031 144.375 254.859 147.304 256.612 151.23M245.723 152.791C249.349 152.254 252.979 151.734 256.612 151.23M260.319 150.721C257.54 143.184 254.378 134.375 251.195 134.375C248.121 134.375 245.104 144.197 242.408 152.974M260.319 150.721C259.083 150.889 257.847 151.059 256.612 151.23M260.319 150.721C260.955 152.445 261.57 154.103 262.161 155.573M260.319 150.721C263.893 150.237 267.467 149.767 271.04 149.313M256.612 151.23C257.284 152.737 257.945 154.39 258.591 156.081M258.591 156.081C261.363 163.336 263.856 171.281 265.758 171.281C267.587 171.281 269.998 162.511 272.658 154.14M258.591 156.081C259.781 155.91 260.971 155.74 262.161 155.573M262.161 155.573C263.503 158.909 264.718 161.281 265.758 161.281C266.787 161.281 268.001 158.504 269.339 154.584M262.161 155.573C264.553 155.236 266.946 154.906 269.339 154.584M269.339 154.584C270.446 154.434 271.552 154.287 272.658 154.14M269.339 154.584C269.887 152.981 270.455 151.187 271.04 149.313M272.658 154.14C273.23 152.341 273.813 150.561 274.405 148.889M272.658 154.14C277.783 153.463 282.908 152.817 288.023 152.201M271.04 149.313C273.888 140.192 277.136 129.188 280.32 129.188C283.551 129.188 286.892 139.061 289.78 147.062M271.04 149.313C272.162 149.17 273.284 149.029 274.405 148.889M274.405 148.889C276.327 143.461 278.336 139.188 280.32 139.188C282.281 139.188 284.282 142.824 286.198 147.472M274.405 148.889C278.341 148.399 282.273 147.927 286.198 147.472M289.78 147.062C288.587 147.197 287.393 147.334 286.198 147.472M289.78 147.062C290.391 148.756 290.982 150.367 291.548 151.782M289.78 147.062C293.191 146.675 296.596 146.302 299.993 145.941M286.198 147.472C286.817 148.973 287.427 150.579 288.023 152.201M288.023 152.201C290.703 159.492 293.118 167.126 294.883 167.094C296.635 167.061 299.061 158.674 301.732 150.62M288.023 152.201C289.199 152.06 290.374 151.92 291.548 151.782M291.548 151.782C292.806 154.931 293.938 157.111 294.883 157.094C295.837 157.076 296.992 154.578 298.277 151.006M291.548 151.782C293.793 151.517 296.037 151.259 298.277 151.006M298.277 151.006C299.43 150.875 300.581 150.747 301.732 150.62M298.277 151.006C298.827 149.477 299.401 147.753 299.993 145.941M301.732 150.62C302.304 148.894 302.888 147.184 303.478 145.575M301.732 150.62C306.719 150.068 311.69 149.545 316.639 149.048M299.993 145.941C302.911 137.014 306.278 125.981 309.445 126C312.641 126.019 315.543 136.067 318.381 144.099M299.993 145.941C301.156 145.818 302.317 145.696 303.478 145.575M303.478 145.575C305.441 140.226 307.482 135.988 309.445 136C311.385 136.011 313.215 139.716 314.99 144.423M303.478 145.575C307.329 145.175 311.167 144.791 314.99 144.423M318.381 144.099C317.252 144.206 316.122 144.314 314.99 144.423M318.381 144.099C318.966 145.754 319.548 147.323 320.13 148.701M318.381 144.099C322.163 143.743 325.928 143.402 329.673 143.075M314.99 144.423C315.545 145.894 316.094 147.463 316.639 149.048M316.639 149.048C319.127 156.281 321.534 163.841 324.008 163.906C326.461 163.971 328.881 155.675 331.362 147.638M316.639 149.048C317.804 148.931 318.967 148.815 320.13 148.701M320.13 148.701C321.418 151.755 322.704 153.872 324.008 153.906C325.346 153.941 326.674 151.489 328.008 147.947M320.13 148.701C322.763 148.442 325.39 148.191 328.008 147.947M328.008 147.947C329.128 147.843 330.246 147.74 331.362 147.638M328.008 147.947C328.562 146.477 329.116 144.82 329.673 143.075M331.362 147.638C331.871 145.988 332.383 144.35 332.898 142.796M331.362 147.638C336.25 147.192 341.107 146.772 345.927 146.375M329.673 143.075C332.535 134.101 335.451 122.812 338.57 122.812C341.774 122.812 344.81 133.453 347.753 141.593M329.673 143.075C330.75 142.981 331.825 142.888 332.898 142.796M332.898 142.796C334.733 137.263 336.612 132.812 338.57 132.812C340.544 132.812 342.455 136.853 344.319 141.86M332.898 142.796C336.728 142.47 340.537 142.158 344.319 141.86M347.753 141.593C346.611 141.681 345.466 141.77 344.319 141.86M347.753 141.593C348.343 143.226 348.93 144.758 349.513 146.083M347.753 141.593C351.332 141.319 354.886 141.057 358.413 140.807M344.319 141.86C344.859 143.309 345.395 144.839 345.927 146.375M345.927 146.375C348.389 153.479 350.777 160.719 353.133 160.719C355.546 160.719 357.755 152.824 360.177 145.259M345.927 146.375C347.125 146.276 348.32 146.179 349.513 146.083M349.513 146.083C350.732 148.852 351.936 150.719 353.133 150.719C354.382 150.719 355.576 148.604 356.773 145.515M349.513 146.083C351.944 145.888 354.364 145.699 356.773 145.515M356.773 145.515C357.91 145.429 359.045 145.343 360.177 145.259M356.773 145.515C357.317 144.111 357.862 142.506 358.413 140.807M360.177 145.259C360.69 143.657 361.213 142.069 361.749 140.574M360.177 145.259C365.758 144.845 371.276 144.462 376.719 144.107M358.413 140.807C361.139 132.398 364.014 121.682 367.695 121.625C371.758 120.531 378.758 137.266 378.758 137.266C379.106 137.996 379.427 138.714 379.724 139.421M358.413 140.807C359.528 140.728 360.64 140.651 361.749 140.574M361.749 140.574C363.533 135.602 365.466 131.659 367.695 131.625C370.258 131.531 372.999 136.531 372.999 136.531C373.666 137.621 374.262 138.683 374.792 139.72M361.749 140.574C366.144 140.271 370.493 139.987 374.792 139.72M374.792 139.72C376.444 139.618 378.088 139.518 379.724 139.421M374.792 139.72C375.568 141.236 376.204 142.697 376.719 144.107M379.724 139.421C380.359 140.935 380.88 142.398 381.303 143.813M379.724 139.421C402.255 138.083 423.292 137.228 441.91 136.69M376.719 144.107C378.253 144.007 379.781 143.909 381.303 143.813M381.303 143.813C404.713 142.344 426.642 141.401 446.087 140.804M446.087 140.804C444.786 139.458 443.395 138.087 441.91 136.69M446.087 140.804C447.061 140.774 448.028 140.745 448.989 140.717M441.91 136.69C435.996 131.126 428.598 125.157 419.508 118.781C330.758 56.5312 443.758 46.5312 443.758 46.5312C443.758 46.5312 446.258 46.0312 447.758 47.0312C449.258 48.0312 449.758 49.5312 449.758 49.5312C449.758 49.5312 336.758 59.5312 425.508 121.781C432.946 126.998 439.251 131.943 444.537 136.616M441.91 136.69C442.791 136.665 443.667 136.64 444.537 136.616M448.989 140.717C497.452 139.297 529.758 140.031 529.758 140.031C529.758 140.031 538.758 140.531 536.758 137.031C535.901 135.531 521.758 136.031 521.758 136.031C521.758 136.031 491.022 135.333 444.537 136.616M448.989 140.717C447.594 139.374 446.11 138.007 444.537 136.616M483.758 178.031C483.758 173.613 487.34 170.031 491.758 170.031C496.176 170.031 499.758 173.613 499.758 178.031C499.758 182.45 496.176 186.031 491.758 186.031C487.34 186.031 483.758 182.45 483.758 178.031Z" stroke="white"/>
</svg>
